<svg width="1600" height="1200" viewBox="0 0 1600 1200" fill="none" xmlns="http://www.w3.org/2000/svg">
  <rect width="1600" height="1200" rx="48" fill="#241D1A"/>
  <rect x="72" y="72" width="1456" height="1056" rx="36" fill="#151110" stroke="#F2ECDF" stroke-opacity="0.16" stroke-width="4"/>
  <rect x="128" y="144" width="520" height="64" rx="20" fill="#8FCFBE" fill-opacity="0.15"/>
  <rect x="128" y="248" width="960" height="164" rx="28" fill="#D9863A" fill-opacity="0.16"/>
  <rect x="128" y="448" width="720" height="40" rx="16" fill="#F2ECDF" fill-opacity="0.24"/>
  <rect x="128" y="516" width="840" height="40" rx="16" fill="#F2ECDF" fill-opacity="0.14"/>
  <rect x="128" y="584" width="690" height="40" rx="16" fill="#F2ECDF" fill-opacity="0.14"/>
  <rect x="128" y="712" width="220" height="72" rx="30" fill="#D9863A"/>
  <rect x="376" y="712" width="220" height="72" rx="30" fill="#F2ECDF" fill-opacity="0.08"/>
  <circle cx="1228" cy="420" r="206" fill="#92ABD8" fill-opacity="0.16"/>
  <path d="M1134 618L1310 286L1392 366L1216 698L1134 618Z" fill="#D7BC62" fill-opacity="0.6"/>
  <text x="128" y="876" fill="#F2ECDF" fill-opacity="0.7" font-family="monospace" font-size="40">brief-hero-placeholder</text>
</svg>
